<?xml version="1.0" encoding="UTF-8" standalone="no"?>
<!DOCTYPE svg PUBLIC "-//W3C//DTD SVG 1.1//EN" "http://www.w3.org/Graphics/SVG/1.1/DTD/svg11.dtd">
<svg width="100%" height="100%" viewBox="0 0 2063 766" version="1.1" xmlns="http://www.w3.org/2000/svg" xmlns:xlink="http://www.w3.org/1999/xlink" xml:space="preserve" xmlns:serif="http://www.serif.com/" style="fill-rule:evenodd;clip-rule:evenodd;stroke-miterlimit:22.9256;">
    <g transform="matrix(1,0,0,1,-223.931,-838.847)">
        <g id="Warstwa-1" serif:id="Warstwa 1" transform="matrix(4.16667,0,0,4.16667,0,0)">
            <g transform="matrix(1,0,0,1,0,-255.472)">
                <rect x="56.222" y="459.274" width="489.961" height="178.814" style="fill:none;stroke:white;stroke-width:0.22px;"/>
            </g>
            <g transform="matrix(1,0,0,1,0,-259.956)">
                <path d="M167.354,580.453L125.654,580.453L137.594,521.393L200.721,521.393L205.59,497.049L118.177,497.049C110.993,532.976 103.649,568.87 96.465,604.797L183.131,604.797L167.354,580.453Z" style="fill:rgb(161,218,248);"/>
            </g>
            <g transform="matrix(1,0,0,1,0,-260.415)">
                <path d="M196.907,571.235L168.829,527.98L142.664,527.977C139.441,544.096 136.518,558.765 133.241,574.94L157.814,574.942L160.868,559.876C170.644,574.86 180.4,589.854 190.113,604.885L190.113,604.886L190.151,604.945L190.153,604.947L190.155,604.945L214.425,605.01L236.378,497.295L211.819,497.423C206.894,522.047 201.883,546.594 196.907,571.235" style="fill:white;"/>
            </g>
            <g transform="matrix(1,0,0,1,0,-320.901)">
                <path d="M310.988,593.7L308.637,604.396L256.139,604.396C246.902,604.396 243.108,600.639 244.759,593.126L249.928,569.608C251.572,562.133 257.012,558.395 266.25,558.395L318.575,558.395L316.225,569.09L263.9,569.09C262.175,569.09 261.148,569.838 260.819,571.333L256.409,591.4C256.071,592.934 256.765,593.7 258.49,593.7L310.988,593.7ZM325.657,604.396L314.387,604.396L319.443,581.396C321.094,573.882 326.539,570.126 335.777,570.126L350.67,570.126L348.711,579.038L333.818,579.038C332.093,579.038 331.066,579.785 330.738,581.28L325.657,604.396ZM366.535,579.038C364.81,579.038 363.784,579.785 363.455,581.28L360.965,592.608C360.628,594.141 361.322,594.908 363.047,594.908L380.815,594.908C382.578,594.908 383.619,594.179 383.939,592.723L386.455,581.28C386.783,579.785 386.066,579.038 384.303,579.038L366.535,579.038ZM386.262,570.126C395.5,570.126 399.294,573.882 397.642,581.396L395.038,593.241C393.404,600.677 387.967,604.396 378.729,604.396L360.961,604.396C351.723,604.396 347.93,600.639 349.581,593.126L352.16,581.396C353.811,573.882 359.256,570.126 368.494,570.126L386.262,570.126ZM436.937,583.12C442.841,583.12 445.274,585.478 444.239,590.193L442.797,596.748C441.677,601.846 438.165,604.396 432.261,604.396L398.279,604.396L400.365,594.908L429.747,594.908C431.204,594.908 432.113,594.084 432.475,592.435C432.778,591.055 432.202,590.365 430.745,590.365L409.816,590.365C403.912,590.365 401.487,587.969 402.54,583.178L403.766,577.6C404.861,572.617 408.361,570.126 414.264,570.126L447.614,570.126L445.656,579.038L416.905,579.038C415.449,579.038 414.568,579.728 414.265,581.108C413.97,582.45 414.551,583.12 416.008,583.12L436.937,583.12ZM484.72,583.12C490.624,583.12 493.057,585.478 492.021,590.193L490.58,596.748C489.459,601.846 485.948,604.396 480.044,604.396L446.062,604.396L448.147,594.908L477.53,594.908C478.986,594.908 479.895,594.084 480.258,592.435C480.561,591.055 479.984,590.365 478.528,590.365L457.598,590.365C451.695,590.365 449.27,587.969 450.322,583.178L451.548,577.6C452.644,572.617 456.144,570.126 462.047,570.126L495.397,570.126L493.438,579.038L464.688,579.038C463.231,579.038 462.351,579.728 462.047,581.108C461.752,582.45 462.333,583.12 463.79,583.12L484.72,583.12Z" style="fill:white;"/>
            </g>
            <g transform="matrix(1,0,0,1,0,-208.796)">
                <path d="M259.93,514.881C259.228,513.749 258.274,512.786 257.066,511.993C255.859,511.201 254.531,510.805 253.082,510.805L252.403,510.805L243.235,552.516L230.327,552.516L242.272,498.169L255.859,498.169C259.483,498.169 262.399,498.758 264.608,499.935C266.818,501.113 268.776,502.97 270.483,505.506L290.114,535.805C290.826,536.891 291.772,537.843 292.952,538.658C294.131,539.473 295.446,539.881 296.895,539.881L297.574,539.881L306.742,498.169L319.718,498.169L307.773,552.516L294.118,552.516C290.358,552.516 287.311,551.905 284.976,550.682C282.64,549.46 280.657,547.512 279.025,544.84L259.93,514.881ZM393.701,539.881L390.924,552.516L330.938,552.516C320.023,552.516 315.541,548.078 317.492,539.202L323.6,511.416C325.54,502.585 331.968,498.169 342.884,498.169L402.666,498.169L399.888,510.805L340.106,510.805C338.068,510.805 336.854,511.688 336.466,513.454L335.257,518.957L397.689,518.957L394.911,531.593L332.479,531.593L331.255,537.163C330.857,538.975 331.677,539.881 333.715,539.881L393.701,539.881ZM409.187,498.169L485.342,498.169L482.564,510.805L451.383,510.805L442.215,552.516L428.967,552.516L438.136,510.805L406.41,510.805L409.187,498.169Z" style="fill:white;"/>
            </g>
        </g>
    </g>
</svg>
