<?xml version="1.0" encoding="UTF-8" standalone="no"?><!DOCTYPE svg PUBLIC "-//W3C//DTD SVG 1.1//EN" "http://www.w3.org/Graphics/SVG/1.1/DTD/svg11.dtd"><svg width="100%" height="100%" viewBox="0 0 1704 410" version="1.1" xmlns="http://www.w3.org/2000/svg" xmlns:xlink="http://www.w3.org/1999/xlink" xml:space="preserve" xmlns:serif="http://www.serif.com/" style="fill-rule:evenodd;clip-rule:evenodd;stroke-linejoin:round;stroke-miterlimit:2;"><g><path id="qz-0" d="M545.779,0.167c-0,-0.092 -0.075,-0.167 -0.167,-0.167l-10.782,0c-0.092,0 -0.167,0.075 -0.167,0.167l0,405.544c0,0.092 0.075,0.166 0.167,0.166l10.782,0c0.092,0 0.167,-0.074 0.167,-0.166l-0,-405.544Z" style="fill:#fff;"/></g><g><g><g id="textblocktransform"><g id="textblock"><g><g><g><g><g id="text-0"><path d="M753.786,11.05l59.867,-0l0,178.841l-49.72,-0l0,-98.68l-33.739,98.68l-41.602,-0l-33.993,-99.441l0,99.441l-49.72,-0l-0,-178.841l60.121,-0l44.9,116.183l43.886,-116.183Zm80.161,107.558c0,-14.713 2.654,-27.564 7.966,-38.559c5.342,-10.994 12.633,-19.446 21.867,-25.367c9.198,-5.921 19.467,-8.879 30.796,-8.879c9.807,0 18.264,1.944 25.367,5.835c7.103,3.891 12.598,9.132 16.489,15.728l0,-19.787l49.721,0l-0,142.312l-49.721,-0l0,-19.787c-3.891,6.596 -9.421,11.837 -16.59,15.728c-7.205,3.891 -15.627,5.835 -25.266,5.835c-11.329,-0 -21.598,-2.958 -30.796,-8.879c-9.234,-5.921 -16.525,-14.424 -21.867,-25.52c-5.312,-11.06 -7.966,-23.947 -7.966,-38.66Zm102.485,0c0,-9.132 -2.501,-16.321 -7.509,-21.562c-4.972,-5.241 -11.095,-7.864 -18.366,-7.864c-7.442,-0 -13.612,2.587 -18.518,7.762c-4.906,5.14 -7.357,12.364 -7.357,21.664c0,9.132 2.451,16.352 7.357,21.664c4.906,5.342 11.076,8.016 18.518,8.016c7.271,0 13.394,-2.623 18.366,-7.864c5.008,-5.241 7.509,-12.516 7.509,-21.816Zm147.639,28.919l14.46,0l-0,42.364l-21.563,-0c-36.362,-0 -54.54,-18.011 -54.54,-54.033l0,-46.93l-17.504,0l0,-41.349l17.504,0l0,-34.5l49.974,0l0,34.5l25.875,0l-0,41.349l-25.875,0l0,47.691c0,3.891 0.878,6.682 2.638,8.371c1.791,1.69 4.805,2.537 9.031,2.537Zm173.26,-30.441c0,3.891 -0.254,7.778 -0.761,11.669l-94.113,0c0.507,7.778 2.653,13.562 6.443,17.351c3.82,3.821 8.691,5.734 14.612,5.734c8.285,-0 14.206,-3.719 17.757,-11.162l53.018,-0c-2.197,9.807 -6.459,18.554 -12.785,26.23c-6.357,7.712 -14.358,13.764 -23.998,18.163c-9.639,4.399 -20.294,6.596 -31.963,6.596c-14.038,-0 -26.499,-2.958 -37.392,-8.879c-10.923,-5.921 -19.467,-14.373 -25.621,-25.368c-6.189,-10.994 -9.284,-23.931 -9.284,-38.812c-0,-14.88 3.044,-27.787 9.132,-38.711c6.088,-10.893 14.596,-19.294 25.52,-25.215c10.893,-5.921 23.439,-8.879 37.645,-8.879c14.038,0 26.469,2.877 37.29,8.625c10.822,5.749 19.28,13.988 25.368,24.708c6.088,10.756 9.132,23.404 9.132,37.95Zm-94.621,-12.43l43.886,-0c0,-6.088 -2.029,-10.873 -6.088,-14.358c-4.059,-3.45 -9.132,-5.175 -15.221,-5.175c-6.088,-0 -11.075,1.639 -14.966,4.921c-3.892,3.313 -6.429,8.184 -7.611,14.612Zm210.551,-57.077l49.974,0l-0,142.312l-49.974,-0l-0,-20.294c-4.227,6.428 -10.061,11.618 -17.504,15.575c-7.443,3.993 -15.981,5.987 -25.621,5.987c-16.575,0 -29.629,-5.464 -39.168,-16.387c-9.573,-10.893 -14.358,-25.723 -14.358,-44.495l0,-82.698l49.467,0l0,76.356c0,8.118 2.146,14.51 6.443,19.178c4.328,4.632 10.046,6.951 17.149,6.951c7.27,-0 13.024,-2.319 17.25,-6.951c4.226,-4.668 6.342,-11.06 6.342,-19.178l-0,-76.356Zm139.014,144.088c-12.852,-0 -24.302,-2.167 -34.348,-6.495c-10.081,-4.297 -18.026,-10.197 -23.845,-17.706c-5.85,-7.544 -9.118,-16.048 -9.792,-25.52l48.198,0c0.675,4.566 2.79,8.118 6.342,10.655c3.551,2.536 7.95,3.805 13.191,3.805c4.059,-0 7.27,-0.848 9.64,-2.537c2.369,-1.69 3.551,-3.891 3.551,-6.596c0,-3.551 -1.943,-6.174 -5.835,-7.864c-3.891,-1.689 -10.314,-3.551 -19.279,-5.58c-10.147,-2.03 -18.604,-4.313 -25.367,-6.85c-6.763,-2.536 -12.633,-6.681 -17.605,-12.43c-5.008,-5.748 -7.509,-13.531 -7.509,-23.338c-0,-8.457 2.283,-16.118 6.849,-22.983c4.566,-6.834 11.299,-12.278 20.193,-16.336c8.863,-4.059 19.548,-6.089 32.064,-6.089c18.605,0 33.232,4.567 43.886,13.699c10.654,9.132 16.829,21.141 18.518,36.022l-44.9,-0c-0.848,-4.566 -2.841,-8.082 -5.987,-10.553c-3.11,-2.435 -7.291,-3.653 -12.532,-3.653c-4.058,-0 -7.138,0.761 -9.233,2.283c-2.131,1.522 -3.197,3.638 -3.197,6.342c0,3.384 1.943,5.951 5.835,7.712c3.891,1.79 10.147,3.617 18.772,5.479c10.314,2.197 18.909,4.652 25.773,7.357c6.834,2.704 12.836,7.052 18.011,13.038c5.14,6.023 7.712,14.191 7.712,24.505c-0,8.285 -2.4,15.728 -7.205,22.324c-4.835,6.595 -11.684,11.786 -20.547,15.575c-8.894,3.821 -19.345,5.734 -31.354,5.734Zm189.241,-104.768l-58.599,61.643l60.629,-0l-0,41.349l-115.423,-0l0,-39.32l56.57,-61.643l-56.062,0l-0,-41.349l112.885,0l0,39.32Z" style="fill:#fff;fill-rule:nonzero;"/><path d="M753.786,215.766l59.867,-0l0,178.841l-49.72,-0l0,-98.68l-33.739,98.68l-41.602,-0l-33.993,-99.441l0,99.441l-49.72,-0l-0,-178.841l60.121,-0l44.9,116.183l43.886,-116.183Zm183.915,36.529l49.974,-0l-0,142.312l-49.974,-0l-0,-20.294c-4.227,6.428 -10.061,11.618 -17.504,15.575c-7.443,3.993 -15.982,5.987 -25.621,5.987c-16.575,-0 -29.645,-5.464 -39.218,-16.387c-9.539,-10.893 -14.308,-25.723 -14.308,-44.495l0,-82.698l49.467,-0l0,76.356c0,8.118 2.166,14.51 6.494,19.178c4.297,4.632 9.995,6.951 17.098,6.951c7.27,-0 13.023,-2.319 17.25,-6.951c4.226,-4.668 6.342,-11.06 6.342,-19.178l-0,-76.356Zm70.268,71.029c-0,-14.713 3.044,-27.564 9.132,-38.559c6.088,-10.994 14.596,-19.446 25.52,-25.367c10.892,-5.921 23.353,-8.879 37.391,-8.879c18.097,0 33.318,4.937 45.662,14.815c12.344,9.908 20.294,23.744 23.845,41.501l-52.764,-0c-3.044,-9.3 -8.965,-13.952 -17.757,-13.952c-6.256,-0 -11.198,2.572 -14.815,7.712c-3.653,5.175 -5.479,12.749 -5.479,22.729c-0,9.979 1.826,17.59 5.479,22.831c3.617,5.241 8.559,7.864 14.815,7.864c8.964,-0 14.88,-4.653 17.757,-13.953l52.764,0c-3.551,17.59 -11.501,31.37 -23.845,41.349c-12.344,9.98 -27.565,14.967 -45.662,14.967c-14.038,0 -26.499,-2.958 -37.391,-8.878c-10.924,-5.921 -19.432,-14.374 -25.52,-25.368c-6.088,-10.994 -9.132,-23.932 -9.132,-38.812Zm255.704,-72.298c16.235,0 29.137,5.444 38.711,16.337c9.538,10.923 14.307,25.687 14.307,44.292l0,82.952l-49.72,-0l-0,-76.357c-0,-8.117 -2.116,-14.495 -6.342,-19.127c-4.226,-4.667 -9.893,-7.001 -16.996,-7.001c-7.443,-0 -13.278,2.334 -17.504,7.001c-4.226,4.632 -6.342,11.01 -6.342,19.127l0,76.357l-49.72,-0l-0,-187.72l49.72,0l0,65.702c4.399,-6.428 10.365,-11.634 17.91,-15.627c7.508,-3.957 16.169,-5.936 25.976,-5.936Zm72.297,72.298c0,-14.713 2.674,-27.564 8.017,-38.559c5.312,-10.994 12.582,-19.446 21.816,-25.367c9.198,-5.921 19.467,-8.879 30.796,-8.879c9.807,0 18.264,1.943 25.367,5.835c7.103,3.891 12.598,9.132 16.489,15.728l0,-19.787l49.72,-0l0,142.312l-49.72,-0l0,-19.787c-3.891,6.595 -9.421,11.836 -16.59,15.728c-7.205,3.891 -15.627,5.834 -25.266,5.834c-11.329,0 -21.598,-2.958 -30.796,-8.878c-9.234,-5.921 -16.504,-14.424 -21.816,-25.52c-5.343,-11.06 -8.017,-23.947 -8.017,-38.66Zm102.485,-0c0,-9.132 -2.486,-16.322 -7.458,-21.563c-5.007,-5.24 -11.146,-7.863 -18.417,-7.863c-7.443,-0 -13.612,2.587 -18.518,7.762c-4.906,5.139 -7.357,12.364 -7.357,21.664c0,9.132 2.451,16.352 7.357,21.664c4.906,5.342 11.075,8.016 18.518,8.016c7.271,-0 13.41,-2.623 18.417,-7.864c4.972,-5.241 7.458,-12.516 7.458,-21.816Z" style="fill:#fff;fill-rule:nonzero;"/></g></g></g></g></g></g></g></g></g><g><g><g><g id="icon-0"><path d="M428.038,0.204l-372.206,0c-30.827,0 -55.832,24.985 -55.832,55.832l0,297.774c0,30.821 25.005,55.826 55.832,55.826l372.212,-0c30.828,-0 55.833,-25.005 55.833,-55.826l-0,-297.774c-0,-30.84 -25.012,-55.832 -55.839,-55.832Zm18.613,353.606c-0,10.245 -8.355,18.606 -18.613,18.606l-372.206,0c-10.252,0 -18.613,-8.354 -18.613,-18.606l0,-260.548l409.432,0l-0,260.548Z" style="fill:#fff;fill-rule:nonzero;"/><path d="M241.935,279.365c-10.252,-0 -18.613,-8.361 -18.613,-18.613c0,-10.252 8.361,-18.613 18.613,-18.613l93.058,0c10.245,0 18.613,8.355 18.613,18.613c-0,10.245 -8.361,18.613 -18.613,18.613l-93.058,-0Z" style="fill:#fff;fill-rule:nonzero;"/><path d="M129.329,149.088l-47.458,-0l65.155,65.135l-65.136,65.142l47.458,-0l65.136,-65.142l-65.155,-65.135Z" style="fill:#fff;fill-rule:nonzero;"/></g></g></g></g></svg>